<?xml version="1.0" encoding="iso-8859-1"?>
<!-- Generator: Adobe Illustrator 18.1.1, SVG Export Plug-In . SVG Version: 6.00 Build 0)  -->
<svg version="1.1" id="Capa_1" xmlns="http://www.w3.org/2000/svg" xmlns:xlink="http://www.w3.org/1999/xlink" x="0px" y="0px"
	 viewBox="0 0 578.952 578.952" style="enable-background:new 0 0 578.952 578.952;" xml:space="preserve">
<g>
	<g>
		<path style="fill:#010002;" d="M280.296,289.476c0-15.096-2.856-29.274-8.568-42.534s-13.464-24.786-23.256-34.578
			s-21.318-17.544-34.578-23.256c-13.26-5.712-27.438-8.568-42.534-8.568s-29.274,2.856-42.534,8.568s-24.786,13.464-34.578,23.256
			s-17.544,21.318-23.256,34.578s-8.568,27.438-8.568,42.534s2.856,29.274,8.568,42.534s13.464,24.787,23.256,34.578
			c9.792,9.793,21.318,17.545,34.578,23.256c13.26,5.713,27.438,8.566,42.534,8.566s29.274-2.854,42.534-8.566
			c13.26-5.711,24.786-13.463,34.578-23.256c9.792-9.791,17.544-21.318,23.256-34.578S280.296,304.572,280.296,289.476z
			 M516.528,289.476c0-15.096-2.854-29.274-8.566-42.534c-5.713-13.26-13.467-24.786-23.258-34.578
			c-9.793-9.792-21.316-17.544-34.576-23.256c-13.262-5.712-27.438-8.568-42.533-8.568c-15.098,0-29.275,2.856-42.535,8.568
			s-24.785,13.464-34.578,23.256c-9.791,9.792-17.543,21.318-23.256,34.578c-5.711,13.26-8.568,27.438-8.568,42.534
			s2.857,29.274,8.568,42.534c5.713,13.26,13.465,24.787,23.256,34.578c9.793,9.793,21.318,17.545,34.578,23.256
			c13.26,5.713,27.439,8.566,42.535,8.566s29.271-2.854,42.533-8.566c13.26-5.711,24.783-13.463,34.576-23.256
			c9.791-9.791,17.545-21.318,23.258-34.578C513.673,318.75,516.528,304.572,516.528,289.476z M561.815,0
			c4.08,0,7.549,1.326,10.404,3.978c2.854,2.652,4.285,6.018,4.285,10.098v550.801c0,4.08-1.432,7.443-4.285,10.098
			c-2.855,2.652-6.324,3.977-10.404,3.977H17.136c-4.08,0-7.548-1.322-10.404-3.977s-4.284-6.018-4.284-10.098V14.076
			c0-4.08,1.428-7.446,4.284-10.098S13.056,0,17.136,0H561.815L561.815,0z"/>
	</g>
</g>
<g>
</g>
<g>
</g>
<g>
</g>
<g>
</g>
<g>
</g>
<g>
</g>
<g>
</g>
<g>
</g>
<g>
</g>
<g>
</g>
<g>
</g>
<g>
</g>
<g>
</g>
<g>
</g>
<g>
</g>
</svg>
